<svg width="150" height="150" viewBox="0 0 150 150" fill="none" xmlns="http://www.w3.org/2000/svg">
<rect width="150" height="150" fill="#1D1F24"/>
<path d="M110.951 69.6496C110.775 68.2995 110.155 67.3061 109.204 66.8546C109.013 66.7632 108.806 66.6952 108.593 66.6513C108.655 65.8818 108.687 65.246 108.687 64.8109V64.3839H92V64.8109C92 67.5947 93.1299 79.7079 95.5141 81.4504L95.6261 81.5328H104.778L104.893 81.4514C105.562 80.9594 106.203 79.6434 106.795 77.5372C108.12 76.9246 109.378 75.5762 110.164 73.9276C110.842 72.4968 111.122 70.9774 110.951 69.6496ZM95.919 80.6793C94.1795 79.0728 92.9801 69.0887 92.8608 65.236H107.827C107.711 68.993 106.277 79.0315 104.488 80.6793H95.919ZM108.518 67.5151C108.641 67.5443 108.745 67.5797 108.839 67.6245C109.562 67.9687 110.02 68.7666 110.133 69.8736C110.248 71.0054 109.984 72.3146 109.391 73.56C108.831 74.7403 108 75.76 107.096 76.3865C107.797 73.482 108.288 69.9313 108.518 67.5151Z" fill="#49535C" fill-opacity="0.17"/>
<path d="M98.8484 58.2999C99.2861 58.4752 99.5343 58.7143 99.6088 59.0305C99.7807 59.7582 99.094 60.7782 98.5957 61.3452L99.2328 61.9113C100.742 60.2294 101.089 58.2788 99.1673 57.5082C98.7236 57.3303 98.4732 57.092 98.4039 56.7801C98.2471 56.0838 98.9243 55.111 99.4174 54.5795L98.7907 54C97.338 55.5668 96.8741 57.5059 98.8484 58.2999Z" fill="#49535C" fill-opacity="0.17"/>
<path d="M102.116 59.6443C102.553 59.8205 102.802 60.0596 102.876 60.3762C103.048 61.1017 102.362 62.1235 101.864 62.6908L102.5 63.256C103.202 62.4917 103.948 61.2046 103.708 60.1823C103.368 58.7361 101.877 59.0433 101.672 58.1252C101.514 57.4281 102.193 56.4572 102.685 55.9251L102.06 55.3445C100.498 57.0397 100.236 58.8901 102.116 59.6443Z" fill="#49535C" fill-opacity="0.17"/>
<path d="M75 97C74.7348 97 74.4804 97.1054 74.2929 97.2929C74.1054 97.4804 74 97.7348 74 98V100C74 100.265 74.1054 100.52 74.2929 100.707C74.4804 100.895 74.7348 101 75 101C75.2652 101 75.5196 100.895 75.7071 100.707C75.8946 100.52 76 100.265 76 100V98C76 97.7348 75.8946 97.4804 75.7071 97.2929C75.5196 97.1054 75.2652 97 75 97V97Z" fill="#49535C" fill-opacity="0.17"/>
<path d="M84 106H82C81.7348 106 81.4804 106.105 81.2929 106.293C81.1054 106.48 81 106.735 81 107C81 107.265 81.1054 107.52 81.2929 107.707C81.4804 107.895 81.7348 108 82 108H84C84.2652 108 84.5196 107.895 84.7071 107.707C84.8946 107.52 85 107.265 85 107C85 106.735 84.8946 106.48 84.7071 106.293C84.5196 106.105 84.2652 106 84 106Z" fill="#49535C" fill-opacity="0.17"/>
<path d="M69 107C69 106.735 68.8946 106.48 68.7071 106.293C68.5196 106.105 68.2652 106 68 106H66C65.7348 106 65.4804 106.105 65.2929 106.293C65.1054 106.48 65 106.735 65 107C65 107.265 65.1054 107.52 65.2929 107.707C65.4804 107.895 65.7348 108 66 108H68C68.2652 108 68.5196 107.895 68.7071 107.707C68.8946 107.52 69 107.265 69 107Z" fill="#49535C" fill-opacity="0.17"/>
<path d="M69.22 100C69.0251 99.8157 68.7649 99.7163 68.4967 99.7238C68.2285 99.7313 67.9743 99.8451 67.79 100.04C67.6057 100.235 67.5063 100.495 67.5138 100.763C67.5213 101.031 67.6351 101.286 67.83 101.47L69.27 102.86C69.3666 102.953 69.4811 103.026 69.6065 103.074C69.7319 103.122 69.8657 103.145 70 103.14C70.1347 103.139 70.2679 103.112 70.3916 103.058C70.5154 103.005 70.627 102.927 70.72 102.83C70.9062 102.643 71.0108 102.389 71.0108 102.125C71.0108 101.861 70.9062 101.607 70.72 101.42L69.22 100Z" fill="#49535C" fill-opacity="0.17"/>
<path d="M80 103.14C80.2575 103.139 80.5046 103.039 80.69 102.86L82.13 101.47C82.3057 101.286 82.4049 101.043 82.4075 100.789C82.4101 100.535 82.3159 100.289 82.1441 100.102C81.9722 99.9151 81.7356 99.8004 81.4822 99.7814C81.2289 99.7624 80.9778 99.8406 80.78 100L79.34 101.42C79.1537 101.607 79.0492 101.861 79.0492 102.125C79.0492 102.389 79.1537 102.643 79.34 102.83C79.5131 103.013 79.7488 103.123 80 103.14Z" fill="#49535C" fill-opacity="0.17"/>
<path d="M75 113C74.7348 113 74.4804 113.105 74.2929 113.293C74.1054 113.48 74 113.735 74 114V116C74 116.265 74.1054 116.52 74.2929 116.707C74.4804 116.895 74.7348 117 75 117C75.2652 117 75.5196 116.895 75.7071 116.707C75.8946 116.52 76 116.265 76 116V114C76 113.735 75.8946 113.48 75.7071 113.293C75.5196 113.105 75.2652 113 75 113Z" fill="#49535C" fill-opacity="0.17"/>
<path d="M80.73 111.14C80.5391 110.956 80.2827 110.855 80.0173 110.859C79.752 110.864 79.4993 110.974 79.315 111.165C79.1307 111.356 79.0298 111.612 79.0345 111.878C79.0391 112.143 79.1491 112.396 79.34 112.58L80.78 114C80.9654 114.179 81.2125 114.279 81.47 114.28C81.604 114.281 81.7368 114.255 81.8605 114.203C81.9842 114.152 82.0962 114.076 82.19 113.98C82.2837 113.887 82.3581 113.776 82.4089 113.655C82.4597 113.533 82.4858 113.402 82.4858 113.27C82.4858 113.138 82.4597 113.007 82.4089 112.885C82.3581 112.764 82.2837 112.653 82.19 112.56L80.73 111.14Z" fill="#49535C" fill-opacity="0.17"/>
<path d="M69.27 111.14L67.83 112.53C67.7363 112.623 67.6619 112.734 67.6111 112.855C67.5603 112.977 67.5342 113.108 67.5342 113.24C67.5342 113.372 67.5603 113.503 67.6111 113.625C67.6619 113.746 67.7363 113.857 67.83 113.95C67.9238 114.046 68.0359 114.122 68.1596 114.173C68.2832 114.225 68.416 114.251 68.55 114.25C68.7965 114.252 69.0351 114.163 69.22 114L70.66 112.61C70.851 112.426 70.9609 112.173 70.9656 111.908C70.9703 111.642 70.8693 111.386 70.685 111.195C70.5007 111.004 70.2481 110.894 69.9827 110.889C69.7173 110.885 69.461 110.986 69.27 111.17V111.14Z" fill="#49535C" fill-opacity="0.17"/>
<path d="M31.2935 114.427L30.3761 113.503L29.3892 114.496L30.3065 115.42L31.2935 114.427Z" fill="#49535C" fill-opacity="0.17"/>
<path d="M23.5943 120.317L24.5179 121.24L25.5048 120.247L24.5812 119.323L23.5943 120.317Z" fill="#49535C" fill-opacity="0.17"/>
<path d="M25.5681 118.33L26.4918 119.254L27.4787 118.267L26.555 117.337L25.5681 118.33Z" fill="#49535C" fill-opacity="0.17"/>
<path d="M29.3892 116.35L28.4656 115.42L27.4787 116.413L28.4023 117.337L29.3892 116.35Z" fill="#49535C" fill-opacity="0.17"/>
<path d="M43.8007 123.221L27.6748 107.025C27.4787 106.892 27.2825 106.759 27.0801 106.829L22.291 107.594C21.981 107.221 21.6457 106.848 21.2851 106.481C18.3434 103.508 14.8702 102.185 13.529 103.52C12.1878 104.861 13.4847 108.354 16.4265 111.327C16.8314 111.738 17.2489 112.111 17.6665 112.459L16.9452 117.008C16.9452 117.274 17.0085 117.47 17.1414 117.603L33.2673 133.798C33.4002 133.931 33.533 133.994 33.7291 133.994C33.9252 133.994 34.0581 133.931 34.191 133.798L43.8007 124.144C44.0664 123.885 44.0664 123.486 43.8007 123.221ZM17.9069 110.935C17.7234 110.764 17.5399 110.587 17.3565 110.403C14.9588 107.98 13.6808 105.348 14.5096 104.52C15.3383 103.691 17.9511 104.988 20.3488 107.411C20.488 107.55 20.6272 107.696 20.7601 107.841L18.7862 108.157C18.5205 108.157 18.3244 108.423 18.2611 108.689L17.9069 110.935ZM33.7291 132.413L18.3307 116.945L18.8938 113.37C19.7668 113.946 20.6209 114.364 21.399 114.591C21.5255 114.895 21.709 115.173 21.9494 115.42C22.4112 115.882 23.0692 116.148 23.7271 116.148C24.3851 116.148 25.043 115.882 25.5048 115.42C26.4917 114.427 26.4917 112.839 25.5048 111.852C24.5179 110.928 22.8731 110.928 21.9494 111.852C21.5572 112.244 21.3231 112.731 21.2409 113.237C20.6019 112.972 19.8744 112.529 19.1152 111.953L19.5138 109.41L27.0168 108.221L42.4152 123.689L33.7291 132.413V132.413ZM22.8667 113.484C22.7655 113.522 22.6516 113.535 22.5314 113.535C22.5504 113.256 22.6643 112.978 22.8731 112.776C23.569 112.168 24.3218 112.472 24.5812 112.776C25.043 113.237 25.043 114.035 24.5812 114.496C24.2332 114.844 23.6955 114.933 23.259 114.749C24.0624 114.458 23.6702 113.193 22.8667 113.484Z" fill="#49535C" fill-opacity="0.17"/>
<path d="M127.429 115H122.286C121.945 115 121.618 115.136 121.377 115.377C121.136 115.618 121 115.945 121 116.286V121.429C121 121.769 121.136 122.096 121.377 122.337C121.618 122.578 121.945 122.714 122.286 122.714H127.429C127.769 122.714 128.096 122.578 128.337 122.337C128.578 122.096 128.714 121.769 128.714 121.429V116.286C128.714 115.945 128.578 115.618 128.337 115.377C128.096 115.136 127.769 115 127.429 115V115ZM127.857 121.429C127.857 121.542 127.812 121.651 127.731 121.731C127.651 121.812 127.542 121.857 127.429 121.857H122.286C122.172 121.857 122.063 121.812 121.983 121.731C121.902 121.651 121.857 121.542 121.857 121.429V116.286C121.857 116.172 121.902 116.063 121.983 115.983C122.063 115.902 122.172 115.857 122.286 115.857H127.429C127.542 115.857 127.651 115.902 127.731 115.983C127.812 116.063 127.857 116.172 127.857 116.286V121.429ZM127.429 125.286H122.286C121.945 125.286 121.618 125.422 121.377 125.663C121.136 125.904 121 126.231 121 126.571V131.714C121 132.055 121.136 132.382 121.377 132.623C121.618 132.864 121.945 133 122.286 133H127.429C127.769 133 128.096 132.864 128.337 132.623C128.578 132.382 128.714 132.055 128.714 131.714V126.571C128.714 126.231 128.578 125.904 128.337 125.663C128.096 125.422 127.769 125.286 127.429 125.286V125.286ZM127.857 131.714C127.857 131.828 127.812 131.937 127.731 132.017C127.651 132.098 127.542 132.143 127.429 132.143H122.286C122.172 132.143 122.063 132.098 121.983 132.017C121.902 131.937 121.857 131.828 121.857 131.714V126.571C121.857 126.458 121.902 126.349 121.983 126.269C122.063 126.188 122.172 126.143 122.286 126.143H127.429C127.542 126.143 127.651 126.188 127.731 126.269C127.812 126.349 127.857 126.458 127.857 126.571V131.714ZM137.714 115H132.571C132.231 115 131.904 115.136 131.663 115.377C131.422 115.618 131.286 115.945 131.286 116.286V121.429C131.286 121.769 131.422 122.096 131.663 122.337C131.904 122.578 132.231 122.714 132.571 122.714H137.714C138.055 122.714 138.382 122.578 138.623 122.337C138.864 122.096 139 121.769 139 121.429V116.286C139 115.945 138.864 115.618 138.623 115.377C138.382 115.136 138.055 115 137.714 115V115ZM138.143 121.429C138.143 121.542 138.098 121.651 138.017 121.731C137.937 121.812 137.828 121.857 137.714 121.857H132.571C132.458 121.857 132.349 121.812 132.269 121.731C132.188 121.651 132.143 121.542 132.143 121.429V116.286C132.143 116.172 132.188 116.063 132.269 115.983C132.349 115.902 132.458 115.857 132.571 115.857H137.714C137.828 115.857 137.937 115.902 138.017 115.983C138.098 116.063 138.143 116.172 138.143 116.286V121.429ZM131.286 129.143V125.714C131.286 125.601 131.331 125.492 131.411 125.411C131.492 125.331 131.601 125.286 131.714 125.286C131.828 125.286 131.937 125.331 132.017 125.411C132.098 125.492 132.143 125.601 132.143 125.714V129.143C132.143 129.257 132.098 129.366 132.017 129.446C131.937 129.526 131.828 129.571 131.714 129.571C131.601 129.571 131.492 129.526 131.411 129.446C131.331 129.366 131.286 129.257 131.286 129.143ZM139 127.429C139 127.542 138.955 127.651 138.874 127.732C138.794 127.812 138.685 127.857 138.571 127.857H135.571V132.571C135.571 132.685 135.526 132.794 135.446 132.874C135.366 132.955 135.257 133 135.143 133H131.714C131.601 133 131.492 132.955 131.411 132.874C131.331 132.794 131.286 132.685 131.286 132.571C131.286 132.458 131.331 132.349 131.411 132.268C131.492 132.188 131.601 132.143 131.714 132.143H134.714V125.714C134.714 125.601 134.759 125.492 134.84 125.411C134.92 125.331 135.029 125.286 135.143 125.286C135.257 125.286 135.366 125.331 135.446 125.411C135.526 125.492 135.571 125.601 135.571 125.714V127H138.571C138.685 127 138.794 127.045 138.874 127.126C138.955 127.206 139 127.315 139 127.429V127.429ZM139 130.857V132.571C139 132.685 138.955 132.794 138.874 132.874C138.794 132.955 138.685 133 138.571 133C138.458 133 138.349 132.955 138.268 132.874C138.188 132.794 138.143 132.685 138.143 132.571V130.857C138.143 130.743 138.188 130.634 138.268 130.554C138.349 130.474 138.458 130.429 138.571 130.429C138.685 130.429 138.794 130.474 138.874 130.554C138.955 130.634 139 130.743 139 130.857Z" fill="#49535C" fill-opacity="0.17"/>
<path d="M129.505 42.4023C129.472 42.4023 129.439 42.3979 129.406 42.3884L113.334 37.8141C113.242 37.788 113.165 37.727 113.119 37.6438C113.073 37.5607 113.061 37.4627 113.087 37.3713L113.737 35.0903L108.878 36.2254C108.785 36.2472 108.688 36.231 108.607 36.1808C108.526 36.1305 108.469 36.0504 108.447 35.9578L105.009 21.2412C104.988 21.1486 105.004 21.0514 105.054 20.9706C105.104 20.8899 105.184 20.8324 105.277 20.8107L121.55 17.0094C121.742 16.9646 121.935 17.0841 121.98 17.2769L123.617 24.2824L133.74 27.1636C133.93 27.2178 134.04 27.416 133.986 27.6064L129.849 42.1419C129.805 42.2994 129.661 42.4023 129.505 42.4023ZM113.875 37.223L129.258 41.6011L133.199 27.7547L123.253 24.9241C123.241 24.9219 123.23 24.9194 123.218 24.9159L117.815 23.3782L113.875 37.223ZM105.789 21.4272L109.064 35.446L113.954 34.3035L114.73 31.5761L109.329 32.8377C109.137 32.8832 108.944 32.7631 108.898 32.5703L106.499 22.2999C106.478 22.2073 106.494 22.1101 106.544 22.0292C106.594 21.9485 106.674 21.8911 106.767 21.8694L120.683 18.6185C120.776 18.597 120.873 18.6128 120.954 18.6633C121.035 18.7134 121.092 18.7935 121.114 18.8861L122.286 23.9037L122.828 24.0582L121.364 17.789L105.789 21.4272ZM107.279 22.4859L109.515 32.0584L114.955 30.7877L117.218 22.8357C117.244 22.7442 117.305 22.667 117.388 22.6207C117.445 22.589 117.51 22.5739 117.573 22.5756C117.605 22.5759 117.636 22.5804 117.667 22.5893L121.497 23.6792L120.497 19.398L107.279 22.4859ZM129.209 38.9971C129.176 38.9971 129.143 38.9926 129.111 38.9833L115.366 35.0712C115.175 35.017 115.065 34.8188 115.119 34.6284L118.006 24.4843C118.033 24.3929 118.094 24.3156 118.177 24.2693C118.26 24.223 118.358 24.2117 118.449 24.2378L132.194 28.1499C132.385 28.2041 132.495 28.4023 132.441 28.5927L129.554 38.7368C129.528 38.8282 129.467 38.9055 129.384 38.9518C129.33 38.9819 129.27 38.9971 129.209 38.9971ZM115.907 34.4801L128.963 38.196L131.654 28.741L118.598 25.0251L115.907 34.4801Z" fill="#49535C" fill-opacity="0.17"/>
<path d="M20.7049 27.6245L22.5029 27.1231C22.7515 27.0538 22.8963 26.7964 22.8271 26.5483C22.7579 26.3002 22.5009 26.1548 22.2523 26.2241L20.4542 26.7255C20.2056 26.7948 20.0609 27.0522 20.13 27.3003C20.1992 27.5484 20.4563 27.6938 20.7049 27.6245Z" fill="#49535C" fill-opacity="0.17"/>
<path d="M26.8945 22.0229L19.7022 24.0283C19.4536 24.0976 19.3088 24.355 19.378 24.6031C19.4472 24.8512 19.7042 24.9966 19.9528 24.9273L27.1451 22.9219C27.3937 22.8526 27.5385 22.5952 27.4693 22.347C27.4001 22.0989 27.143 21.9536 26.8945 22.0229Z" fill="#49535C" fill-opacity="0.17"/>
<path d="M28.0744 27.992C28.1435 28.2401 28.4006 28.3855 28.6492 28.3162L33.1444 27.0628C33.393 26.9935 33.5377 26.7361 33.4686 26.488C33.3994 26.2398 33.1423 26.0945 32.8937 26.1638L28.3985 27.4172C28.1499 27.4864 28.0052 27.7438 28.0744 27.992Z" fill="#49535C" fill-opacity="0.17"/>
<path d="M29.4446 24.2186L24.0504 25.7227C23.8018 25.792 23.657 26.0494 23.7262 26.2975C23.7954 26.5456 24.0524 26.691 24.301 26.6217L29.6953 25.1176C29.9439 25.0483 30.0886 24.7909 30.0194 24.5428C29.9503 24.2947 29.6932 24.1493 29.4446 24.2186Z" fill="#49535C" fill-opacity="0.17"/>
<path d="M27.9406 18.8244L28.8396 18.5737C29.0882 18.5044 29.233 18.247 29.1638 17.9989C29.0946 17.7508 28.8375 17.6054 28.589 17.6747L28.1691 17.7918C27.9635 16.2673 29.0443 15.6104 29.0917 15.5822C29.2783 15.4764 29.3684 15.2574 29.3108 15.0511L28.8095 13.253C28.7403 13.0049 28.4832 12.8595 28.2346 12.9289C28.093 12.9683 27.8746 12.9929 27.7636 12.9769L27.5345 12.1551L30.2316 11.4031L30.4607 12.2248C30.3786 12.2918 30.1907 12.3825 30.0327 12.4275C29.7842 12.4968 29.6394 12.7542 29.7086 13.0023L30.2099 14.8004C30.2675 15.0067 30.4583 15.1473 30.6722 15.1414C30.6862 15.1414 31.9833 15.1242 32.605 16.5549L30.3871 17.1733C30.1385 17.2426 29.9938 17.5 30.0629 17.7481L30.815 20.4452C30.8841 20.6934 31.1412 20.8387 31.3898 20.7694C31.6384 20.7001 31.7831 20.4427 31.714 20.1946L31.0873 17.947L33.3349 17.3203C33.5835 17.2509 33.7282 16.9935 33.6591 16.7454C33.1655 14.9752 31.8744 14.3566 31.0206 14.2327L30.7212 13.1589C31.1721 12.9324 31.5225 12.5576 31.3813 12.0514L31.0053 10.7028C30.936 10.4548 30.6789 10.3094 30.4303 10.3787L26.8342 11.3814C26.5856 11.4507 26.4408 11.7082 26.51 11.9563L26.886 13.3048C27.0271 13.811 27.5209 13.9504 28.024 13.911L28.3234 14.9849C27.6569 15.5326 26.8721 16.73 27.3657 18.5002C27.4349 18.7484 27.692 18.8937 27.9406 18.8244Z" fill="#49535C" fill-opacity="0.17"/>
<path d="M21.4569 30.3216L26.8512 28.8175C27.0997 28.7482 27.2445 28.4908 27.1753 28.2427C27.1061 27.9946 26.8491 27.8492 26.6005 27.9185L21.2062 29.4226C20.9577 29.4919 20.8129 29.7493 20.8821 29.9974C20.9513 30.2455 21.2083 30.3909 21.4569 30.3216Z" fill="#49535C" fill-opacity="0.17"/>
<path d="M34.1302 13.2229L33.6807 13.3482C33.4321 13.4175 33.2873 13.6749 33.3565 13.923C33.4257 14.1711 33.6827 14.3165 33.9313 14.2472L34.3808 14.1219C35.1243 13.9146 35.8981 14.3509 36.1054 15.0944L41.3696 33.9742C41.5769 34.7177 41.1405 35.4915 40.397 35.6988L27.8105 39.2083C27.5619 39.2776 27.4172 39.535 27.4863 39.7831C27.5555 40.0312 27.8126 40.1766 28.0612 40.1073L40.6477 36.5978C41.887 36.2523 42.6142 34.9629 42.2686 33.7235L37.0044 14.8437C36.6589 13.6044 35.3695 12.8773 34.1302 13.2229Z" fill="#49535C" fill-opacity="0.17"/>
<path d="M22.9091 33.7924L20.6616 34.4191C20.413 34.4884 20.2682 34.7458 20.3374 34.9939C20.4066 35.242 20.6636 35.3874 20.9122 35.3181L23.1598 34.6914C23.6556 34.5532 24.1713 34.8439 24.3096 35.3398L25.3857 39.1994L18.4874 35.3092L14.5285 21.1106C14.3212 20.3671 14.7576 19.5934 15.5011 19.386L25.84 16.5033C26.0886 16.434 26.2334 16.1766 26.1642 15.9284C26.095 15.6803 25.838 15.535 25.5894 15.6043L15.2503 18.4871C14.011 18.8326 13.2838 20.122 13.6294 21.3614L17.6402 35.746C17.6734 35.8651 17.7526 35.9665 17.8605 36.0271L25.9086 40.5656C26.0184 40.6275 26.1462 40.6413 26.2631 40.6087C26.3211 40.5925 26.3764 40.565 26.4257 40.5266C26.5744 40.41 26.6379 40.2155 26.5873 40.0339L25.2085 35.0891C24.9321 34.0975 23.9008 33.5159 22.9091 33.7924Z" fill="#49535C" fill-opacity="0.17"/>
<path d="M28.5022 31.264L34.7955 29.5092C35.0441 29.4399 35.1889 29.1825 35.1197 28.9344C35.0505 28.6863 34.7934 28.5409 34.5449 28.6102L28.2516 30.3649C28.003 30.4343 27.8582 30.6917 27.9274 30.9398C27.9966 31.1879 28.2536 31.3333 28.5022 31.264Z" fill="#49535C" fill-opacity="0.17"/>
<path d="M34.5146 23.2895C34.4455 23.0414 34.1884 22.896 33.9398 22.9653L31.2427 23.7173C30.9941 23.7866 30.8493 24.0441 30.9185 24.2922C30.9877 24.5403 31.2448 24.6857 31.4934 24.6163L34.1905 23.8643C34.4391 23.795 34.5838 23.5376 34.5146 23.2895Z" fill="#49535C" fill-opacity="0.17"/>
<path d="M38 72.3212L38.5837 72.905L39.5477 71.941L38.964 71.3572L38 72.3212Z" fill="#49535C" fill-opacity="0.17"/>
<path d="M63.0649 53.0416L63.6487 53.6253L64.2913 52.9826L63.7076 52.3989L63.0649 53.0416Z" fill="#49535C" fill-opacity="0.17"/>
<path d="M64.6136 50.7907C64.4894 50.6667 64.3464 50.5731 64.1939 50.5087L64.9055 49.7972L61.1082 46L50.8838 56.2243L51.2052 56.5457L41.5647 66.1861L41.8861 66.5075L39.6366 68.7569L40.6007 69.7209L39.2858 71.0358L39.8695 71.6196L41.1844 70.3047L42.1484 71.2687L44.3978 69.0193L44.7192 69.3406L54.3597 59.7001L54.681 60.0215L63.2817 51.4208L63.328 51.3744C63.4217 51.2807 63.5463 51.2292 63.6789 51.2292C63.8114 51.2292 63.936 51.2808 64.0297 51.3744C64.2232 51.5679 64.2232 51.8826 64.0297 52.0761L64.6135 52.6598C65.1288 52.1446 65.1288 51.3061 64.6136 50.7907ZM42.1484 70.1012L40.8041 68.7569L42.4699 67.0912L43.8142 68.4356L42.1484 70.1012ZM44.7193 68.1731L42.7323 66.1861L43.4339 65.4845L45.4209 67.4715L44.7193 68.1731ZM46.0046 66.8878L44.0176 64.9007L51.789 57.1294L53.776 59.1164L46.0046 66.8878ZM54.6812 58.854L52.0514 56.2243L52.7531 55.5227L55.3828 58.1524L54.6812 58.854ZM55.9665 57.5686L53.3368 54.9388L59.8227 48.453L62.4524 51.0827L55.9665 57.5686ZM63.0363 50.4989L60.4065 47.8691L61.1082 47.1675L63.7379 49.7972L63.0363 50.4989Z" fill="#49535C" fill-opacity="0.17"/>
<path d="M62.7443 53.3616L56.6682 59.4377L57.6027 60.3723L58.1865 59.7886L57.8357 59.4377L63.3281 53.9453L62.7443 53.3616Z" fill="#49535C" fill-opacity="0.17"/>
</svg>
