<svg width="23" height="23" viewBox="0 0 23 23" fill="none" xmlns="http://www.w3.org/2000/svg">
<path d="M2.2224 10.5903H8.38681C9.60178 10.5903 10.5903 9.60178 10.5903 8.38681V2.2224C10.5903 1.00739 9.60178 0.0189514 8.38681 0.0189514H2.2224C1.00743 0.0189514 0.0189514 1.00739 0.0189514 2.2224V8.38681C0.0189514 9.60178 1.00743 10.5903 2.2224 10.5903ZM1.64254 2.2224C1.64254 1.90215 1.90215 1.64254 2.2224 1.64254H8.38681C8.70706 1.64254 8.96667 1.90215 8.96667 2.2224V8.38681C8.96667 8.70706 8.70706 8.96667 8.38681 8.96667H2.2224C1.90215 8.96667 1.64254 8.70706 1.64254 8.38681V2.2224Z" fill="white"/>
<path d="M8.38681 10.6092H2.22239C0.99697 10.6092 0 9.61223 0 8.38681V2.22239C0 0.996932 0.99697 0 2.22239 0H8.38681C9.61223 0 10.6092 0.99697 10.6092 2.22239V8.38681C10.6092 9.61223 9.61223 10.6092 8.38681 10.6092ZM2.22239 0.0378989C1.01785 0.0378989 0.0378989 1.01785 0.0378989 2.22239V8.38681C0.0378989 9.59135 1.01785 10.5713 2.22239 10.5713H8.38681C9.59135 10.5713 10.5713 9.59135 10.5713 8.38681V2.22239C10.5713 1.01785 9.59135 0.0378989 8.38681 0.0378989H2.22239V0.0378989ZM8.38681 8.98558H2.22239C1.89222 8.98558 1.62359 8.71695 1.62359 8.38677V2.22239C1.62359 1.89222 1.89222 1.62359 2.22239 1.62359H8.38681C8.71699 1.62359 8.98561 1.89222 8.98561 2.22239V8.38681C8.98561 8.71699 8.71699 8.98558 8.38681 8.98558ZM2.22239 1.66149C1.9131 1.66149 1.66149 1.9131 1.66149 2.22239V8.38681C1.66149 8.6961 1.9131 8.94771 2.22239 8.94771H8.38681C8.6961 8.94771 8.94771 8.6961 8.94771 8.38681V2.22239C8.94771 1.9131 8.6961 1.66149 8.38681 1.66149H2.22239Z" fill="white"/>
<path d="M20.7776 0.0189514H14.6132C13.3982 0.0189514 12.4097 1.00743 12.4097 2.2224V8.38681C12.4097 9.60178 13.3982 10.5903 14.6132 10.5903H20.7776C21.9926 10.5903 22.981 9.60178 22.981 8.38681V2.2224C22.981 1.00739 21.9926 0.0189514 20.7776 0.0189514ZM21.3575 8.38681C21.3575 8.70706 21.0978 8.96667 20.7776 8.96667H14.6132C14.293 8.96667 14.0333 8.70706 14.0333 8.38681V2.2224C14.0333 1.90215 14.293 1.64254 14.6132 1.64254H20.7776C21.0978 1.64254 21.3575 1.90215 21.3575 2.2224V8.38681Z" fill="white"/>
<path d="M20.7776 10.6092H14.6132C13.3878 10.6092 12.3908 9.61223 12.3908 8.38681V2.22239C12.3908 0.99697 13.3878 0 14.6132 0H20.7776C22.003 0 23 0.99697 23 2.22239V8.38681C23 9.61223 22.003 10.6092 20.7776 10.6092ZM14.6132 0.0378989C13.4087 0.0378989 12.4287 1.01785 12.4287 2.22239V8.38681C12.4287 9.59135 13.4086 10.5713 14.6132 10.5713H20.7776C21.9821 10.5713 22.9621 9.59135 22.9621 8.38681V2.22239C22.9621 1.01785 21.9822 0.0378989 20.7776 0.0378989H14.6132V0.0378989ZM20.7776 8.98558H14.6132C14.283 8.98558 14.0144 8.71695 14.0144 8.38677V2.22239C14.0144 1.89222 14.283 1.62359 14.6132 1.62359H20.7776C21.1078 1.62359 21.3764 1.89222 21.3764 2.22239V8.38681C21.3764 8.71699 21.1078 8.98558 20.7776 8.98558ZM14.6132 1.66149C14.3039 1.66149 14.0523 1.9131 14.0523 2.22239V8.38681C14.0523 8.6961 14.3039 8.94771 14.6132 8.94771H20.7776C21.0869 8.94771 21.3385 8.6961 21.3385 8.38681V2.22239C21.3385 1.9131 21.0869 1.66149 20.7776 1.66149H14.6132Z" fill="white"/>
<path d="M2.2224 22.9265H8.38681C9.60178 22.9265 10.5903 21.9381 10.5903 20.7231V14.5587C10.5903 13.3437 9.60178 12.3552 8.38681 12.3552H2.2224C1.00743 12.3552 0.0189514 13.3437 0.0189514 14.5587V20.7231C0.0189514 21.9381 1.00743 22.9265 2.2224 22.9265ZM1.64254 14.5587C1.64254 14.2385 1.90215 13.9788 2.2224 13.9788H8.38681C8.70706 13.9788 8.96667 14.2385 8.96667 14.5587V20.7231C8.96667 21.0433 8.70706 21.3029 8.38681 21.3029H2.2224C1.90215 21.3029 1.64254 21.0433 1.64254 20.7231V14.5587Z" fill="white"/>
<path d="M8.38681 22.9454H2.22239C0.99697 22.9454 0 21.9485 0 20.7231V14.5587C0 13.3332 0.99697 12.3362 2.22239 12.3362H8.38681C9.61223 12.3362 10.6092 13.3332 10.6092 14.5587V20.7231C10.6092 21.9485 9.61223 22.9454 8.38681 22.9454ZM2.22239 12.3742C1.01785 12.3742 0.0378989 13.3541 0.0378989 14.5587V20.7231C0.0378989 21.9276 1.01785 22.9075 2.22239 22.9075H8.38681C9.59135 22.9075 10.5713 21.9276 10.5713 20.7231V14.5587C10.5713 13.3541 9.59135 12.3741 8.38681 12.3741H2.22239V12.3742ZM8.38681 21.3218H2.22239C1.89222 21.3218 1.62359 21.0533 1.62359 20.7231V14.5587C1.62359 14.2284 1.89222 13.9598 2.22239 13.9598H8.38681C8.71699 13.9598 8.98561 14.2284 8.98561 14.5587V20.7231C8.98561 21.0533 8.71699 21.3218 8.38681 21.3218ZM2.22239 13.9977C1.9131 13.9977 1.66149 14.2494 1.66149 14.5587V20.7231C1.66149 21.0323 1.9131 21.2839 2.22239 21.2839H8.38681C8.6961 21.2839 8.94771 21.0323 8.94771 20.7231V14.5587C8.94771 14.2494 8.6961 13.9977 8.38681 13.9977H2.22239Z" fill="white"/>
<path d="M20.7776 12.3552H14.6132C13.3982 12.3552 12.4097 13.3437 12.4097 14.5587V20.7231C12.4097 21.9381 13.3982 22.9265 14.6132 22.9265H20.7776C21.9926 22.9265 22.981 21.9381 22.981 20.7231V14.5587C22.981 13.3437 21.9926 12.3552 20.7776 12.3552ZM21.3575 20.7231C21.3575 21.0433 21.0978 21.3029 20.7776 21.3029H14.6132C14.293 21.3029 14.0333 21.0433 14.0333 20.7231V14.5587C14.0333 14.2384 14.293 13.9788 14.6132 13.9788H20.7776C21.0978 13.9788 21.3575 14.2384 21.3575 14.5587V20.7231Z" fill="white"/>
<path d="M20.7776 22.9454H14.6132C13.3878 22.9454 12.3908 21.9485 12.3908 20.7231V14.5587C12.3908 13.3332 13.3878 12.3362 14.6132 12.3362H20.7776C22.003 12.3362 23 13.3332 23 14.5587V20.7231C23 21.9485 22.003 22.9454 20.7776 22.9454ZM14.6132 12.3742C13.4087 12.3742 12.4287 13.3541 12.4287 14.5587V20.7231C12.4287 21.9276 13.4086 22.9076 14.6132 22.9076H20.7776C21.9821 22.9076 22.9621 21.9277 22.9621 20.7231V14.5587C22.9621 13.3541 21.9822 12.3741 20.7776 12.3741H14.6132V12.3742ZM20.7776 21.3218H14.6132C14.283 21.3218 14.0144 21.0533 14.0144 20.7231V14.5587C14.0144 14.2284 14.283 13.9598 14.6132 13.9598H20.7776C21.1078 13.9598 21.3764 14.2284 21.3764 14.5587V20.7231C21.3764 21.0533 21.1078 21.3218 20.7776 21.3218ZM14.6132 13.9977C14.3039 13.9977 14.0523 14.2494 14.0523 14.5587V20.7231C14.0523 21.0323 14.3039 21.2839 14.6132 21.2839H20.7776C21.0869 21.2839 21.3385 21.0323 21.3385 20.7231V14.5587C21.3385 14.2494 21.0869 13.9977 20.7776 13.9977H14.6132Z" fill="white"/>
</svg>
