<svg width="20" height="22" viewBox="0 0 20 22" fill="none" xmlns="http://www.w3.org/2000/svg">
<path d="M18.7536 5.48001C18.7336 5.48001 18.7036 5.48001 18.6736 5.48001C13.3836 4.95001 8.10356 4.75001 2.87358 5.28001L0.833578 5.48001C0.413578 5.52001 0.0435777 5.22001 0.00357768 4.80001C-0.0364223 4.38001 0.263578 4.02001 0.673578 3.98001L2.71358 3.78001C8.03356 3.24001 13.4236 3.45001 18.8236 3.98001C19.2336 4.02001 19.5336 4.39001 19.4936 4.80001C19.4636 5.19001 19.1336 5.48001 18.7536 5.48001Z" fill="white"/>
<path d="M6.25367 4.47C6.21367 4.47 6.17367 4.47 6.12367 4.46C5.72367 4.39 5.44367 4 5.51367 3.6L5.73367 2.29C5.89367 1.33 6.11367 0 8.44366 0H11.0637C13.4037 0 13.6237 1.38 13.7737 2.3L13.9937 3.6C14.0637 4.01 13.7837 4.4 13.3837 4.46C12.9737 4.53 12.5837 4.25 12.5237 3.85L12.3037 2.55C12.1637 1.68 12.1337 1.51 11.0737 1.51H8.45366C7.39367 1.51 7.37367 1.65 7.22367 2.54L6.99367 3.84C6.93367 4.21 6.61367 4.47 6.25367 4.47Z" fill="white"/>
<path d="M12.9636 21.5H6.54356C3.05356 21.5 2.91356 19.57 2.80356 18.01L2.15356 7.94001C2.12356 7.53001 2.44356 7.17001 2.85356 7.14001C3.27356 7.12001 3.62356 7.43001 3.65356 7.84001L4.30356 17.91C4.41356 19.43 4.45356 20 6.54356 20H12.9636C15.0636 20 15.1036 19.43 15.2036 17.91L15.8536 7.84001C15.8836 7.43001 16.2436 7.12001 16.6536 7.14001C17.0636 7.17001 17.3836 7.52001 17.3536 7.94001L16.7036 18.01C16.5936 19.57 16.4536 21.5 12.9636 21.5Z" fill="white"/>
<path d="M11.4138 16H8.08376C7.67374 16 7.33374 15.66 7.33374 15.25C7.33374 14.84 7.67374 14.5 8.08376 14.5H11.4138C11.8238 14.5 12.1638 14.84 12.1638 15.25C12.1638 15.66 11.8238 16 11.4138 16Z" fill="white"/>
<path d="M12.2537 12H7.25366C6.84366 12 6.50366 11.66 6.50366 11.25C6.50366 10.84 6.84366 10.5 7.25366 10.5H12.2537C12.6637 10.5 13.0037 10.84 13.0037 11.25C13.0037 11.66 12.6637 12 12.2537 12Z" fill="white"/>
</svg>
